<svg width="31" height="31" viewBox="0 0 31 31" fill="none" xmlns="http://www.w3.org/2000/svg">
<path d="M8.71875 20.3438H27.125C27.2363 20.3438 27.3442 20.3054 27.4306 20.2352C27.517 20.165 27.5765 20.0672 27.5992 19.9582L30.0211 8.33319C30.0358 8.26271 30.0346 8.18984 30.0175 8.11989C30.0005 8.04993 29.9681 7.98465 29.9227 7.92879C29.8773 7.87293 29.82 7.8279 29.755 7.79697C29.69 7.76605 29.6189 7.75 29.5469 7.75H6.36705L5.31523 3.27964C5.29022 3.17338 5.23004 3.07868 5.14446 3.01091C5.05888 2.94313 4.95292 2.90625 4.84375 2.90625H1.45312C1.32466 2.90625 1.20146 2.95728 1.11062 3.04812C1.01978 3.13896 0.96875 3.26216 0.96875 3.39063C0.96875 3.51909 1.01978 3.64229 1.11062 3.73313C1.20146 3.82397 1.32466 3.875 1.45312 3.875H4.46012L8.12884 19.4672C7.73789 19.5926 7.39682 19.8389 7.15467 20.1705C6.91252 20.5021 6.78178 20.9019 6.78125 21.3125V22.2813C6.78183 22.7949 6.98614 23.2874 7.34937 23.6506C7.71259 24.0139 8.20507 24.2182 8.71875 24.2188H8.72008C8.44978 24.5785 8.28503 25.0064 8.24431 25.4545C8.20359 25.9026 8.28852 26.3532 8.48956 26.7558C8.69061 27.1583 8.99982 27.4969 9.38252 27.7335C9.76523 27.9702 10.2063 28.0955 10.6562 28.0955C11.1062 28.0955 11.5473 27.9702 11.93 27.7335C12.3127 27.4969 12.6219 27.1583 12.8229 26.7558C13.024 26.3532 13.1089 25.9026 13.0682 25.4545C13.0275 25.0064 12.8627 24.5785 12.5924 24.2188H22.2826C22.0123 24.5785 21.8475 25.0064 21.8068 25.4545C21.7661 25.9026 21.851 26.3532 22.0521 26.7558C22.2531 27.1583 22.5623 27.4969 22.945 27.7335C23.3277 27.9702 23.7688 28.0955 24.2188 28.0955C24.6687 28.0955 25.1098 27.9702 25.4925 27.7335C25.8752 27.4969 26.1844 27.1583 26.3854 26.7558C26.5865 26.3532 26.6714 25.9026 26.6307 25.4545C26.59 25.0064 26.4252 24.5785 26.1549 24.2188H28.0938C28.2222 24.2188 28.3454 24.1677 28.4363 24.0769C28.5271 23.986 28.5781 23.8628 28.5781 23.7344C28.5781 23.6059 28.5271 23.4827 28.4363 23.3919C28.3454 23.301 28.2222 23.25 28.0938 23.25H8.71875C8.46192 23.2497 8.21569 23.1475 8.03408 22.9659C7.85247 22.7843 7.7503 22.5381 7.75 22.2813V21.3125C7.7503 21.0557 7.85247 20.8094 8.03408 20.6278C8.21569 20.4462 8.46192 20.3441 8.71875 20.3438ZM9.10238 19.375L8.64652 17.4375H11.3185L11.5607 19.375H9.1025H9.10238ZM19.5966 14.5313L19.5158 16.4688H16.3279L16.2471 14.5313H19.5966ZM16.2068 13.5625L16.1261 11.625H19.7177L19.6369 13.5625H16.2068ZM15.3583 16.4688H12.1736L11.9314 14.5313H15.2774L15.3583 16.4688ZM15.3986 17.4375L15.4794 19.375H12.5368L12.2946 17.4375H15.3986ZM16.3682 17.4375H19.4755L19.3947 19.375H16.449L16.3682 17.4375ZM20.4451 17.4375H23.549L23.3068 19.375H20.3642L20.4451 17.4375ZM20.4854 16.4688L20.5662 14.5313H23.9123L23.6701 16.4688H20.4854ZM24.8885 14.5313H27.7403L27.3369 16.4688H24.6463L24.8885 14.5313ZM25.0096 13.5625L25.2518 11.625H28.3457L27.9424 13.5625H25.0096ZM24.0334 13.5625H20.6064L20.6872 11.625H24.2754L24.0334 13.5625ZM20.7275 10.6563L20.8083 8.71875H24.6387L24.3965 10.6563H20.7275ZM19.7579 10.6563H16.0857L16.005 8.71875H19.8388L19.7579 10.6563ZM15.116 10.6563H11.4469L11.2047 8.71875H15.0351L15.116 10.6563ZM15.1563 11.625L15.2371 13.5625H11.8102L11.568 11.625H15.1563ZM10.834 13.5625H7.73462L7.27876 11.625H10.5918L10.834 13.5625ZM10.9551 14.5313L11.1973 16.4688H8.4182L7.96234 14.5313H10.9551ZM26.7314 19.375H24.2831L24.5252 17.4375H27.1348L26.7314 19.375ZM28.5479 10.6563H25.3729L25.6151 8.71875H28.9512L28.5479 10.6563ZM10.2287 8.71875L10.4709 10.6563H7.05093L6.59507 8.71875H10.2287ZM12.1094 25.6719C12.1094 25.9593 12.0242 26.2402 11.8645 26.4792C11.7048 26.7182 11.4779 26.9044 11.2123 27.0144C10.9468 27.1244 10.6546 27.1532 10.3728 27.0971C10.0909 27.041 9.83196 26.9026 9.62874 26.6994C9.42551 26.4962 9.28712 26.2372 9.23105 25.9554C9.17498 25.6735 9.20375 25.3813 9.31374 25.1158C9.42372 24.8503 9.60997 24.6233 9.84894 24.4636C10.0879 24.304 10.3688 24.2188 10.6562 24.2188C11.0415 24.2192 11.4109 24.3724 11.6833 24.6449C11.9557 24.9173 12.1089 25.2866 12.1094 25.6719ZM25.6719 25.6719C25.6719 25.9593 25.5867 26.2402 25.427 26.4792C25.2673 26.7182 25.0404 26.9044 24.7748 27.0144C24.5093 27.1244 24.2171 27.1532 23.9353 27.0971C23.6534 27.041 23.3945 26.9026 23.1912 26.6994C22.988 26.4962 22.8496 26.2372 22.7935 25.9554C22.7375 25.6735 22.7663 25.3813 22.8762 25.1158C22.9862 24.8503 23.1725 24.6233 23.4114 24.4636C23.6504 24.304 23.9313 24.2188 24.2188 24.2188C24.604 24.2192 24.9734 24.3724 25.2458 24.6449C25.5182 24.9173 25.6714 25.2866 25.6719 25.6719Z" fill="#FAFF00"/>
<path d="M10.6562 26.1562C10.9238 26.1562 11.1406 25.9394 11.1406 25.6719C11.1406 25.4044 10.9238 25.1875 10.6562 25.1875C10.3887 25.1875 10.1719 25.4044 10.1719 25.6719C10.1719 25.9394 10.3887 26.1562 10.6562 26.1562Z" fill="white"/>
<path d="M24.2188 26.1562C24.4863 26.1562 24.7031 25.9394 24.7031 25.6719C24.7031 25.4044 24.4863 25.1875 24.2188 25.1875C23.9512 25.1875 23.7344 25.4044 23.7344 25.6719C23.7344 25.9394 23.9512 26.1562 24.2188 26.1562Z" fill="white"/>
</svg>
