<svg width="42" height="32" viewBox="0 0 42 32" fill="none" xmlns="http://www.w3.org/2000/svg">
<ellipse cx="35" cy="7.28052" rx="7" ry="6.62378" fill="white"/>
<path d="M8.71875 21.3438H27.125C27.2363 21.3438 27.3442 21.3054 27.4306 21.2352C27.517 21.165 27.5765 21.0672 27.5992 20.9582L30.0211 9.33319C30.0358 9.26271 30.0346 9.18984 30.0175 9.11989C30.0005 9.04993 29.9681 8.98465 29.9227 8.92879C29.8773 8.87293 29.82 8.8279 29.755 8.79697C29.69 8.76605 29.6189 8.75 29.5469 8.75H6.36705L5.31523 4.27964C5.29022 4.17338 5.23004 4.07868 5.14446 4.01091C5.05888 3.94313 4.95292 3.90625 4.84375 3.90625H1.45312C1.32466 3.90625 1.20146 3.95728 1.11062 4.04812C1.01978 4.13896 0.96875 4.26216 0.96875 4.39063C0.96875 4.51909 1.01978 4.64229 1.11062 4.73313C1.20146 4.82397 1.32466 4.875 1.45312 4.875H4.46012L8.12884 20.4672C7.73789 20.5926 7.39682 20.8389 7.15467 21.1705C6.91252 21.5021 6.78178 21.9019 6.78125 22.3125V23.2813C6.78183 23.7949 6.98614 24.2874 7.34937 24.6506C7.71259 25.0139 8.20507 25.2182 8.71875 25.2188H8.72008C8.44978 25.5785 8.28503 26.0064 8.24431 26.4545C8.20359 26.9026 8.28852 27.3532 8.48956 27.7558C8.69061 28.1583 8.99982 28.4969 9.38252 28.7335C9.76523 28.9702 10.2063 29.0955 10.6562 29.0955C11.1062 29.0955 11.5473 28.9702 11.93 28.7335C12.3127 28.4969 12.6219 28.1583 12.8229 27.7558C13.024 27.3532 13.1089 26.9026 13.0682 26.4545C13.0275 26.0064 12.8627 25.5785 12.5924 25.2188H22.2826C22.0123 25.5785 21.8475 26.0064 21.8068 26.4545C21.7661 26.9026 21.851 27.3532 22.0521 27.7558C22.2531 28.1583 22.5623 28.4969 22.945 28.7335C23.3277 28.9702 23.7688 29.0955 24.2188 29.0955C24.6687 29.0955 25.1098 28.9702 25.4925 28.7335C25.8752 28.4969 26.1844 28.1583 26.3854 27.7558C26.5865 27.3532 26.6714 26.9026 26.6307 26.4545C26.59 26.0064 26.4252 25.5785 26.1549 25.2188H28.0938C28.2222 25.2188 28.3454 25.1677 28.4363 25.0769C28.5271 24.986 28.5781 24.8628 28.5781 24.7344C28.5781 24.6059 28.5271 24.4827 28.4363 24.3919C28.3454 24.301 28.2222 24.25 28.0938 24.25H8.71875C8.46192 24.2497 8.21569 24.1475 8.03408 23.9659C7.85247 23.7843 7.7503 23.5381 7.75 23.2813V22.3125C7.7503 22.0557 7.85247 21.8094 8.03408 21.6278C8.21569 21.4462 8.46192 21.3441 8.71875 21.3438ZM9.10238 20.375L8.64652 18.4375H11.3185L11.5607 20.375H9.1025H9.10238ZM19.5966 15.5313L19.5158 17.4688H16.3279L16.2471 15.5313H19.5966ZM16.2068 14.5625L16.1261 12.625H19.7177L19.6369 14.5625H16.2068ZM15.3583 17.4688H12.1736L11.9314 15.5313H15.2774L15.3583 17.4688ZM15.3986 18.4375L15.4794 20.375H12.5368L12.2946 18.4375H15.3986ZM16.3682 18.4375H19.4755L19.3947 20.375H16.449L16.3682 18.4375ZM20.4451 18.4375H23.549L23.3068 20.375H20.3642L20.4451 18.4375ZM20.4854 17.4688L20.5662 15.5313H23.9123L23.6701 17.4688H20.4854ZM24.8885 15.5313H27.7403L27.3369 17.4688H24.6463L24.8885 15.5313ZM25.0096 14.5625L25.2518 12.625H28.3457L27.9424 14.5625H25.0096ZM24.0334 14.5625H20.6064L20.6872 12.625H24.2754L24.0334 14.5625ZM20.7275 11.6563L20.8083 9.71875H24.6387L24.3965 11.6563H20.7275ZM19.7579 11.6563H16.0857L16.005 9.71875H19.8388L19.7579 11.6563ZM15.116 11.6563H11.4469L11.2047 9.71875H15.0351L15.116 11.6563ZM15.1563 12.625L15.2371 14.5625H11.8102L11.568 12.625H15.1563ZM10.834 14.5625H7.73462L7.27876 12.625H10.5918L10.834 14.5625ZM10.9551 15.5313L11.1973 17.4688H8.4182L7.96234 15.5313H10.9551ZM26.7314 20.375H24.2831L24.5252 18.4375H27.1348L26.7314 20.375ZM28.5479 11.6563H25.3729L25.6151 9.71875H28.9512L28.5479 11.6563ZM10.2287 9.71875L10.4709 11.6563H7.05093L6.59507 9.71875H10.2287ZM12.1094 26.6719C12.1094 26.9593 12.0242 27.2402 11.8645 27.4792C11.7048 27.7182 11.4779 27.9044 11.2123 28.0144C10.9468 28.1244 10.6546 28.1532 10.3728 28.0971C10.0909 28.041 9.83196 27.9026 9.62874 27.6994C9.42551 27.4962 9.28712 27.2372 9.23105 26.9554C9.17498 26.6735 9.20375 26.3813 9.31374 26.1158C9.42372 25.8503 9.60997 25.6233 9.84894 25.4636C10.0879 25.304 10.3688 25.2188 10.6562 25.2188C11.0415 25.2192 11.4109 25.3724 11.6833 25.6449C11.9557 25.9173 12.1089 26.2866 12.1094 26.6719ZM25.6719 26.6719C25.6719 26.9593 25.5867 27.2402 25.427 27.4792C25.2673 27.7182 25.0404 27.9044 24.7748 28.0144C24.5093 28.1244 24.2171 28.1532 23.9353 28.0971C23.6534 28.041 23.3945 27.9026 23.1912 27.6994C22.988 27.4962 22.8496 27.2372 22.7935 26.9554C22.7375 26.6735 22.7663 26.3813 22.8762 26.1158C22.9862 25.8503 23.1725 25.6233 23.4114 25.4636C23.6504 25.304 23.9313 25.2188 24.2188 25.2188C24.604 25.2192 24.9734 25.3724 25.2458 25.6449C25.5182 25.9173 25.6714 26.2866 25.6719 26.6719Z" fill="#FAFF00"/>
<path d="M10.6562 27.1562C10.9238 27.1562 11.1406 26.9394 11.1406 26.6719C11.1406 26.4044 10.9238 26.1875 10.6562 26.1875C10.3887 26.1875 10.1719 26.4044 10.1719 26.6719C10.1719 26.9394 10.3887 27.1562 10.6562 27.1562Z" fill="white"/>
<path d="M24.2188 27.1562C24.4863 27.1562 24.7031 26.9394 24.7031 26.6719C24.7031 26.4044 24.4863 26.1875 24.2188 26.1875C23.9512 26.1875 23.7344 26.4044 23.7344 26.6719C23.7344 26.9394 23.9512 27.1562 24.2188 27.1562Z" fill="white"/>
<path d="M36.86 8.217V9H32.333V8.388L34.898 5.913C35.21 5.613 35.42 5.355 35.528 5.139C35.636 4.917 35.69 4.695 35.69 4.473C35.69 4.143 35.573 3.888 35.339 3.708C35.111 3.522 34.781 3.429 34.349 3.429C33.653 3.429 33.116 3.657 32.738 4.113L32.126 3.582C32.372 3.282 32.693 3.048 33.089 2.88C33.491 2.712 33.938 2.628 34.43 2.628C35.09 2.628 35.615 2.787 36.005 3.105C36.395 3.417 36.59 3.843 36.59 4.383C36.59 4.719 36.518 5.037 36.374 5.337C36.23 5.637 35.957 5.979 35.555 6.363L33.629 8.217H36.86Z" fill="black"/>
</svg>
