<svg width="183" height="183" viewBox="0 0 183 183" fill="none" xmlns="http://www.w3.org/2000/svg">
<g clip-path="url(#clip0)">
<path d="M89.0554 31.0525C94.3735 25.7554 101.906 24.0129 108.686 25.8154C110.495 32.5673 108.746 40.0676 103.428 45.3647C98.1082 50.6618 90.5772 52.4029 83.7974 50.6018V40.1318C84.6854 36.8061 86.4348 33.6605 89.0554 31.0525Z" fill="#00973C"/>
<path d="M93.9588 33.0741C93.9588 23.3944 89.41 15.5479 83.7974 15.5479C78.1847 15.5479 73.6346 23.3944 73.6346 33.0741C73.6346 42.7538 78.1847 50.6018 83.7974 50.6018C89.41 50.6018 93.9588 42.7538 93.9588 33.0741Z" fill="#28D05B"/>
<path d="M155.529 145.853C155.456 145.669 155.381 145.485 155.303 145.3H27.7072C27.629 145.485 27.5536 145.669 27.481 145.853C23.2967 156.569 31.4546 168.108 42.9577 168.108H140.052C151.555 168.108 159.713 156.569 155.529 145.853Z" fill="#FF983B"/>
<path d="M155.303 145.3H143.804L145.541 149.753C146.437 152.047 145.539 153.899 144.925 154.8C144.393 155.578 142.854 157.386 140.052 157.386H27.4266C29.7498 163.49 35.6822 168.108 42.9577 168.108H140.052C151.555 168.108 159.713 156.569 155.529 145.853C155.456 145.669 155.381 145.485 155.303 145.3Z" fill="#FF6344"/>
<path d="M14.6641 117.596V133.261C14.6641 142.144 21.8642 149.345 30.7467 149.345H152.263C161.146 149.345 168.346 142.144 168.346 133.261V117.596H14.6641Z" fill="#00973C"/>
<path d="M171.959 105.292C167.887 105.272 163.818 106.27 160.069 108.027H22.9504C18.6474 106.011 14.3136 105.164 10.2773 105.307C4.11454 105.484 0.618508 111.235 4.021 116.779C9.33905 125.51 20.9581 131.173 31.0776 129.422C37.4693 128.352 44.1584 131.307 47.223 135.868C54.176 146.348 71.9382 149.812 82.8578 142.544C87.8212 139.276 95.1902 139.272 100.161 142.544C111.086 149.814 128.849 146.341 135.797 135.868C139.104 130.944 146.02 128.43 151.942 129.422C162.032 131.168 173.67 125.532 178.999 116.779C179.017 116.75 179.034 116.721 179.052 116.691C182.178 111.432 179.415 105.335 171.959 105.292Z" fill="#28D05B"/>
<path d="M89.1839 114.583C89.1839 107.333 76.7104 101.455 61.3245 101.455C45.9385 101.455 33.4665 107.333 33.4665 114.583C33.4665 121.835 45.9385 127.713 61.3245 127.713C76.7104 127.713 89.1839 121.835 89.1839 114.583Z" fill="#FF5368"/>
<path d="M149.544 114.583C149.544 107.333 137.071 101.455 121.686 101.455C106.3 101.455 93.8262 107.333 93.8262 114.583C93.8262 121.835 106.3 127.713 121.686 127.713C137.071 127.713 149.544 121.835 149.544 114.583Z" fill="#FF5368"/>
<path d="M161.579 92.0208C155.23 78.8352 144.548 67.7817 131.18 60.3652C119.611 53.9469 106.03 50.2512 91.5057 50.2512C60.1922 50.2512 33.2724 67.4256 21.4314 92.0208C16.3632 102.547 24.1009 114.379 35.7185 114.379H147.293C158.934 114.379 166.634 102.52 161.579 92.0208Z" fill="#FF983B"/>
<path d="M150.862 92.0208C139.702 68.8442 115.157 52.2589 86.1653 50.4202C87.9301 50.3099 89.7088 50.2512 91.5043 50.2512C106.03 50.2512 119.611 53.9469 131.178 60.3652C144.548 67.7817 155.23 78.8352 161.579 92.0208C162.534 94.0047 163.032 96.0362 163.135 98.0271C163.582 106.577 156.735 114.379 147.292 114.379H35.7171C28.4318 114.379 22.674 109.724 20.6411 103.658H147.293C149.936 103.658 151.258 102.008 151.703 101.298C153.357 98.6694 152.209 94.8187 150.862 92.0208Z" fill="#FF6344"/>
<path d="M181.802 107.708C179.986 104.494 176.403 102.637 171.973 102.611C169.763 102.587 167.49 102.868 165.237 103.397C166.319 99.2796 165.918 94.8551 163.994 90.8578C153.037 68.1015 130.254 52.3162 103.985 48.4781C104.443 48.0886 104.892 47.6879 105.318 47.2635C111.107 41.4972 113.389 33.0126 111.274 25.12C111.026 24.193 110.301 23.4698 109.374 23.224C104.554 21.9423 99.3955 22.283 94.8049 24.119C92.86 19.587 89.4547 15.714 85.1349 13.2246C84.307 12.7471 83.2864 12.7471 82.4584 13.2246C75.3631 17.3154 70.9539 24.9218 70.9539 33.0741C70.9539 38.9618 73.2534 44.5632 77.2032 48.763C51.7062 53.0506 29.7177 68.6292 19.016 90.8592C18.3737 92.1926 17.8907 93.586 17.5821 94.9989C17.2666 96.4453 18.1825 97.8736 19.6289 98.1892C21.074 98.5061 22.5036 97.5888 22.8206 96.1424C23.0398 95.1371 23.3846 94.1416 23.8468 93.1852C35.6194 68.7311 62.1761 52.932 91.5057 52.932C120.834 52.932 147.391 68.7311 159.163 93.1852C161.132 97.2719 160.894 101.789 158.513 105.578C158.367 105.81 158.217 106.034 158.059 106.254C157.961 106.364 157.873 106.482 157.796 106.605C155.321 109.817 151.48 111.699 147.293 111.699H35.7171C31.8232 111.699 31.2019 111.202 28.2154 108.81C27.8301 108.5 27.414 108.168 26.9826 107.828C22.5288 104.249 16.5573 102.406 10.2005 102.629C6.24093 102.742 2.85519 104.702 1.14068 107.87C-0.565455 111.026 -0.349047 114.784 1.73126 118.174C4.19273 122.215 7.81163 125.603 11.9834 128.06V133.261C11.9834 141.891 17.8418 149.173 25.7875 151.356C25.8601 151.379 25.9327 151.4 26.0081 151.419C27.5215 151.814 29.1104 152.026 30.7467 152.026H152.263C152.834 152.026 153.397 151.997 153.955 151.945C153.888 155.371 152.446 158.76 149.965 161.278C147.328 163.952 143.804 165.425 140.051 165.428H42.9549C37.7807 165.428 33.0518 162.566 30.6169 157.962C30.1533 157.076 29.2416 156.529 28.2406 156.529C27.8119 156.529 27.3791 156.636 26.9966 156.836C25.6883 157.525 25.1857 159.152 25.8754 160.46C27.4643 163.491 29.8448 166.053 32.7544 167.873C35.8037 169.781 39.3304 170.789 42.9591 170.789H140.051L140.065 170.771V170.789C142.711 170.789 145.273 170.26 147.682 169.224C149.976 168.234 152.032 166.825 153.787 165.038C155.523 163.272 156.889 161.228 157.842 158.962C158.823 156.636 159.32 154.191 159.322 151.696C159.322 151.35 159.31 151.002 159.289 150.655C166.164 147.868 171.028 141.125 171.028 133.261V128.067C175.204 125.612 178.823 122.223 181.283 118.182L181.357 118.061C183.377 114.66 183.545 110.791 181.802 107.708ZM83.7974 47.4254C79.1453 44.1528 76.3152 38.7873 76.3152 33.0741C76.3152 27.3623 79.1453 21.9982 83.796 18.7255C87.1454 21.0865 89.6181 24.5839 90.6792 28.5267C91.0771 30.0067 91.2781 31.5369 91.2781 33.0755C91.2781 38.7873 88.4481 44.1528 83.7974 47.4254ZM94.8342 47.6362C93.7284 47.5944 92.6184 47.5706 91.5057 47.5706C91.482 47.5706 91.461 47.5706 91.4387 47.5706C94.7448 43.5315 96.6395 38.4201 96.6395 33.0741C96.6395 31.805 96.5333 30.54 96.3253 29.2932C99.4821 27.9194 103.026 27.4852 106.438 28.066C107.397 33.6479 105.589 39.4267 101.536 43.4645C99.6231 45.3702 97.3669 46.7678 94.8342 47.6362ZM146.032 117.06C143.305 121.2 134.063 125.032 121.686 125.032C109.307 125.032 100.064 121.2 97.3375 117.06H146.032ZM85.6725 117.06C82.9471 121.2 73.703 125.032 61.3245 125.032C48.9459 125.032 39.7046 121.2 36.9779 117.06H85.6725ZM30.7467 146.665C23.3567 146.665 17.3448 140.651 17.3448 133.261V130.588C21.9633 132.27 26.9016 132.865 31.5202 132.066C36.6023 131.214 42.3978 133.493 44.9891 137.349C47.6628 141.379 51.836 144.615 56.8567 146.665H30.7467ZM80.9212 146.665C82.1178 146.124 83.2599 145.497 84.3321 144.783C88.4243 142.089 94.5954 142.089 98.6765 144.776C99.7543 145.493 100.902 146.123 102.104 146.663H80.9212V146.665ZM165.667 133.261C165.667 140.651 159.655 146.665 152.263 146.665H126.163C131.184 144.615 135.356 141.381 138.022 137.363C140.622 133.493 146.417 131.214 151.486 132.065C152.861 132.302 154.263 132.417 155.677 132.417C159.018 132.417 162.421 131.773 165.667 130.593V133.261ZM176.757 115.309L176.709 115.385C171.891 123.301 161.213 128.306 152.385 126.779C145.246 125.582 137.331 128.777 133.563 134.387C130.691 138.715 125.483 141.916 119.273 143.169C112.768 144.48 106.343 143.439 101.635 140.306C95.7682 136.443 87.2515 136.443 81.3736 140.313C76.6769 143.438 70.2516 144.48 63.7454 143.169C57.5366 141.916 52.3289 138.716 49.4471 134.374C46.2178 129.566 39.9238 126.532 33.6759 126.532C32.6511 126.532 31.6277 126.613 30.621 126.782C21.8111 128.306 11.1317 123.299 6.30515 115.378C5.23288 113.63 5.07372 111.87 5.85698 110.421C6.65001 108.955 8.33101 108.046 10.3722 107.986C15.4711 107.81 20.172 109.233 23.6471 112.025C24.0869 112.372 24.4904 112.694 24.8646 112.994C27.1432 114.819 28.6985 115.985 31.0162 116.581C31.8678 120.381 35.1489 123.778 40.4837 126.293C46.0949 128.937 53.4961 130.393 61.3245 130.393C69.1528 130.393 76.554 128.937 82.1666 126.293C87.2473 123.897 90.4739 120.704 91.5043 117.12C92.5361 120.704 95.7613 123.897 100.843 126.293C106.455 128.937 113.857 130.393 121.684 130.393C129.513 130.393 136.915 128.937 142.526 126.293C147.917 123.752 151.213 120.31 152.022 116.461C155.874 115.474 159.3 113.296 161.802 110.182C165.129 108.719 168.611 107.961 171.942 107.972C174.433 107.988 176.278 108.829 177.135 110.347C177.92 111.735 177.774 113.595 176.757 115.309Z" fill="black"/>
<path d="M74.8688 87.5293C74.8688 89.0107 73.6695 90.21 72.1882 90.21C70.7082 90.21 69.5075 89.0107 69.5075 87.5293C69.5075 86.0494 70.7082 84.8486 72.1882 84.8486C73.6695 84.8486 74.8688 86.0494 74.8688 87.5293Z" fill="black"/>
<path d="M96.3141 76.8066C96.3141 78.2866 95.1134 79.4873 93.6335 79.4873C92.1535 79.4873 90.9528 78.2866 90.9528 76.8066C90.9528 75.3253 92.1535 74.126 93.6335 74.126C95.1134 74.126 96.3141 75.3253 96.3141 76.8066Z" fill="black"/>
<path d="M110.61 91.1035C110.61 92.5835 109.409 93.7842 107.929 93.7842C106.448 93.7842 105.248 92.5835 105.248 91.1035C105.248 89.6236 106.448 88.4229 107.929 88.4229C109.409 88.4229 110.61 89.6236 110.61 91.1035Z" fill="black"/>
<path d="M113.112 66.0855C113.112 67.5654 111.911 68.7661 110.431 68.7661C108.951 68.7661 107.75 67.5654 107.75 66.0855C107.75 64.6055 108.951 63.4048 110.431 63.4048C111.911 63.4048 113.112 64.6055 113.112 66.0855Z" fill="black"/>
<path d="M139.558 83.9549C139.558 85.4362 138.359 86.6356 136.879 86.6356C135.397 86.6356 134.198 85.4362 134.198 83.9549C134.198 82.475 135.397 81.2756 136.879 81.2756C138.359 81.2756 139.558 82.475 139.558 83.9549Z" fill="black"/>
<path d="M53.7837 76.8066C53.7837 78.288 52.583 79.4873 51.103 79.4873C49.6217 79.4873 48.4224 78.288 48.4224 76.8066C48.4224 75.3267 49.6217 74.126 51.103 74.126C52.583 74.126 53.7837 75.3267 53.7837 76.8066Z" fill="black"/>
<path d="M75.2263 62.5112C75.2263 63.9926 74.0255 65.1919 72.5456 65.1919C71.0656 65.1919 69.8649 63.9926 69.8649 62.5112C69.8649 61.0313 71.0656 59.8306 72.5456 59.8306C74.0255 59.8306 75.2263 61.0313 75.2263 62.5112Z" fill="black"/>
</g>
<defs>
<clipPath id="clip0">
<rect width="183" height="183" fill="white"/>
</clipPath>
</defs>
</svg>
