<svg width="171" height="171" viewBox="0 0 171 171" fill="none" xmlns="http://www.w3.org/2000/svg">
<g clip-path="url(#clip0)">
<path d="M139.269 103.203V153.967C139.269 161.345 133.289 167.326 125.911 167.326H72.4746C65.0969 167.326 59.1152 161.345 59.1152 153.967C59.1152 149.583 59.1152 109.197 59.1152 103.203C59.1152 95.3958 62.4903 88.1694 68.1589 83.1636H130.225C135.77 88.0598 139.269 95.2236 139.269 103.203Z" fill="#FF637B"/>
<path d="M132.591 69.8054C136.28 69.8054 139.269 72.7943 139.269 76.4851C139.269 80.172 136.277 83.1635 132.591 83.1635C129.167 83.1635 69.1217 83.1635 65.7949 83.1635C62.1041 83.1635 59.1152 80.1746 59.1152 76.4851C59.1152 72.7969 62.108 69.8054 65.7949 69.8054H132.591Z" fill="#E0F4FF"/>
<path d="M128.542 3.55132C131.932 5.00337 133.501 8.92769 132.049 12.321L118.863 43.0868H104.332L119.773 7.05816C121.218 3.66743 125.142 2.09405 128.542 3.55132Z" fill="#766E6E"/>
<path d="M82.4928 56.4461C76.9625 56.4461 72.4746 51.9568 72.4746 46.4265C72.4746 38.3483 78.215 31.6047 85.8405 30.0613C86.0597 37.2863 93.4478 43.0867 102.532 43.0867H119.231C122.918 43.0867 125.911 46.0795 125.911 49.7664C125.911 53.4572 122.922 56.4461 119.231 56.4461H125.911C129.6 56.4461 132.591 59.435 132.591 63.1258C132.591 66.8166 129.6 69.8055 125.911 69.8055H72.4746C68.7838 69.8055 65.7949 66.8166 65.7949 63.1258C65.7949 59.435 68.7838 56.4461 72.4746 56.4461H82.4928Z" fill="#FED2A4"/>
<path d="M115.891 125.246C115.891 134.467 108.413 148.623 99.1921 148.623C89.971 148.623 82.4928 134.467 82.4928 125.246C82.4928 116.025 89.971 115.226 99.1921 115.226C108.413 115.226 115.891 116.025 115.891 125.246Z" fill="#E0F4FF"/>
<path d="M59.9567 96.5229C59.4061 98.6573 59.1152 100.899 59.1152 103.203V109.882H55.7754C50.245 109.882 45.7558 114.372 45.7558 119.902C45.7558 125.436 50.2411 129.921 55.7754 129.921H59.1152V143.28H55.7754C42.8635 143.28 32.3964 132.814 32.3964 119.902C32.3964 106.991 42.8635 96.5229 55.7754 96.5229H59.9567Z" fill="#766E6E"/>
<path d="M55.7754 146.619V153.967C55.7754 163.175 63.2665 170.666 72.4746 170.666H125.911C135.118 170.666 142.609 163.175 142.609 153.967V138.604C142.609 136.76 141.114 135.264 139.269 135.264C137.425 135.264 135.93 136.76 135.93 138.604V153.967C135.93 159.492 131.435 163.986 125.911 163.986H72.4746C66.9495 163.986 62.4551 159.492 62.4551 153.967V103.203C62.4551 96.9873 64.9025 90.9808 69.4766 86.5033H128.913C133.386 90.892 135.93 96.9103 135.93 103.203V111.886C135.93 113.731 137.425 115.226 139.269 115.226C141.114 115.226 142.609 113.731 142.609 111.886V103.203C142.609 96.8098 140.567 90.6389 136.872 85.547C140.224 83.9605 142.609 80.532 142.609 76.485C142.609 71.8706 139.474 67.9776 135.222 66.8177C135.676 65.6749 135.93 64.429 135.93 63.1256C135.93 58.5112 132.794 54.6182 128.542 53.4597C128.998 52.3155 129.251 51.0696 129.251 49.7663C129.251 45.748 126.889 42.3038 123.518 40.7056L135.119 13.6359C137.292 8.55697 134.932 2.65614 129.857 0.480021C124.758 -1.70393 118.872 0.656146 116.701 5.74159L102.133 39.7389C95.1138 39.5797 89.3395 35.2562 89.1777 29.9594C89.1477 28.9757 88.6859 28.0559 87.9149 27.4441C87.1425 26.8335 86.1406 26.5935 85.1765 26.7878C75.881 28.6691 69.1334 36.9287 69.1334 46.4264C69.1334 48.853 69.7792 51.1818 70.9847 53.217C66.1641 53.9385 62.4537 58.1067 62.4537 63.1256C62.4537 64.429 62.7068 65.6736 63.1622 66.8164C61.4948 67.2678 59.9645 68.1459 58.7095 69.4009C56.8178 71.2939 55.7741 73.8092 55.7741 76.485C55.7741 80.4759 58.1211 83.9292 61.5079 85.5378C59.8067 87.8757 58.4564 90.4459 57.4922 93.183H55.7741C41.0683 93.183 29.0566 105.08 29.0566 119.902C29.0566 134.634 41.0422 146.619 55.7754 146.619ZM55.7754 126.581C52.0924 126.581 49.0957 123.585 49.0957 119.902C49.0957 116.212 52.0859 113.222 55.7754 113.222V126.581ZM122.844 8.3678C123.566 6.67439 125.525 5.89162 127.227 6.6209C128.918 7.34497 129.705 9.31366 128.979 11.0058L116.661 39.7467H109.397L122.844 8.3678ZM72.4746 59.7858H92.5124C94.3571 59.7858 95.8522 58.2907 95.8522 56.4459C95.8522 54.6012 94.3571 53.1061 92.5124 53.1061C87.8914 53.1061 84.8829 53.1061 82.4928 53.1061C78.8046 53.1061 75.8144 50.1159 75.8144 46.4264C75.8144 41.2549 78.8125 36.6339 83.2847 34.4317C85.697 41.4166 93.3591 46.4264 102.532 46.4264H119.231C121.075 46.4264 122.571 47.9215 122.571 49.7663C122.571 51.6084 121.072 53.1061 119.231 53.1061C117.386 53.1061 115.891 54.6012 115.891 56.4459C115.891 58.2907 117.386 59.7858 119.231 59.7858H125.911C127.752 59.7858 129.251 61.2835 129.251 63.1256C129.251 64.9665 127.752 66.4655 125.911 66.4655H72.4746C70.6325 66.4655 69.1347 64.9665 69.1347 63.1256C69.1347 61.2835 70.6325 59.7858 72.4746 59.7858ZM63.4335 74.1237C64.065 73.4922 64.9038 73.1452 65.7949 73.1452H132.589C134.431 73.1452 135.929 74.6429 135.929 76.485C135.929 78.3285 134.434 79.8236 132.589 79.8236H65.7949C63.9528 79.8236 62.4551 78.3259 62.4551 76.485C62.4551 75.5927 62.8021 74.7551 63.4335 74.1237ZM55.7754 99.8627H55.9645C55.8406 100.969 55.7754 102.084 55.7754 103.203V106.542C48.3951 106.542 42.416 112.52 42.416 119.902C42.416 127.268 48.4094 133.261 55.7754 133.261V139.94C44.7265 139.94 35.7363 130.951 35.7363 119.902C35.7363 108.872 44.6586 99.8627 55.7754 99.8627Z" fill="black"/>
<path d="M109.212 105.207C111.056 105.207 112.551 103.711 112.551 101.867C112.551 100.022 111.056 98.5269 109.212 98.5269C101.846 98.5269 95.8522 104.52 95.8522 111.886V111.94C86.1106 112.284 79.1543 115.207 79.1543 125.246C79.1543 136.112 87.774 151.963 99.1921 151.963C110.605 151.963 119.231 136.111 119.231 125.246C119.231 115.203 112.27 112.284 102.532 111.94V111.886C102.532 108.203 105.529 105.207 109.212 105.207ZM112.551 125.246C112.551 132.994 106.069 145.283 99.1921 145.283C92.2723 145.283 85.8327 132.927 85.8327 125.246C85.8327 120.315 87.8509 118.566 99.1921 118.566C110.533 118.566 112.551 120.315 112.551 125.246Z" fill="black"/>
<path d="M142.609 125.246C142.609 127.089 141.114 128.585 139.269 128.585C137.426 128.585 135.93 127.089 135.93 125.246C135.93 123.401 137.426 121.906 139.269 121.906C141.114 121.906 142.609 123.401 142.609 125.246Z" fill="black"/>
</g>
<defs>
<clipPath id="clip0">
<rect width="171" height="171" fill="white"/>
</clipPath>
</defs>
</svg>
