<svg width="72" height="72" viewBox="0 0 72 72" fill="none" xmlns="http://www.w3.org/2000/svg">
<path d="M45.1288 46.6104C45.2587 46.3989 45.3887 46.1914 45.5186 45.9759C51.3624 36.3009 54.3032 27.8375 54.261 20.8237C54.235 15.9982 52.3001 11.3792 48.879 7.97589C45.458 4.57259 40.8289 2.66177 36.0033 2.66095C31.1778 2.66013 26.548 4.56939 23.1258 7.97152C19.7036 11.3737 17.7671 15.9921 17.7395 20.8175C17.6968 27.8375 20.6381 36.302 26.4819 45.9759C26.6119 46.1914 26.7418 46.3989 26.8717 46.6104C14.5687 48.1309 6.41248 52.5279 6.41248 57.7485C6.41248 64.3027 19.4062 69.4367 36 69.4367C52.5937 69.4367 65.5875 64.3027 65.5875 57.7485C65.5875 52.5279 57.4312 48.1309 45.1288 46.6104V46.6104ZM19.7083 20.8237C19.6961 18.6762 20.1086 16.5474 20.9221 14.5599C21.7355 12.5723 22.9339 10.7652 24.4483 9.24248C25.9627 7.71974 27.7632 6.51144 29.7463 5.68706C31.7293 4.86268 33.8558 4.4385 36.0034 4.4389C38.151 4.43931 40.2773 4.8643 42.26 5.68944C44.2427 6.51457 46.0428 7.72356 47.5566 9.24686C49.0704 10.7702 50.2681 12.5777 51.0808 14.5656C51.8936 16.5535 52.3052 18.6824 52.2922 20.8299C52.3766 34.8125 39.3041 52.0582 36 56.1937C32.6959 52.0582 19.6228 34.812 19.7083 20.8237V20.8237ZM36 67.4679C19.4788 67.4679 8.38123 62.442 8.38123 57.7485C8.38123 53.586 16.61 49.7132 28.0316 48.4571C30.2406 51.9062 32.651 55.2221 35.2502 58.3875C35.3425 58.4963 35.4574 58.5837 35.5868 58.6437C35.7163 58.7036 35.8573 58.7347 36 58.7347C36.1427 58.7347 36.2836 58.7036 36.4131 58.6437C36.5426 58.5837 36.6575 58.4963 36.7498 58.3875C39.3492 55.2221 41.7597 51.9062 43.9689 48.4571C55.3877 49.7132 63.6193 53.5837 63.6193 57.7485C63.6187 62.442 52.5212 67.4679 36 67.4679Z" fill="#FAFF00"/>
<path d="M27.9517 61.7664C23.5834 61.2073 20.0767 60.2229 18.081 58.9961C17.9708 58.9257 17.8478 58.8779 17.719 58.8556C17.5902 58.8333 17.4582 58.8368 17.3308 58.866C17.2034 58.8952 17.0831 58.9495 16.9769 59.0257C16.8707 59.1019 16.7807 59.1985 16.7122 59.3099C16.6438 59.4212 16.5982 59.5451 16.5781 59.6743C16.558 59.8035 16.5639 59.9353 16.5953 60.0622C16.6267 60.1891 16.6831 60.3084 16.7612 60.4133C16.8392 60.5182 16.9374 60.6064 17.0499 60.6729C19.2791 62.0432 23.0625 63.1254 27.702 63.7189C27.7438 63.7243 27.7859 63.7269 27.828 63.7267C28.0775 63.7255 28.3172 63.6296 28.4987 63.4584C28.6802 63.2872 28.7899 63.0534 28.8056 62.8044C28.8214 62.5554 28.7419 62.3097 28.5834 62.117C28.4249 61.9243 28.1991 61.799 27.9517 61.7664V61.7664Z" fill="#FAFF00"/>
<path d="M37.6532 62.2367C36.2812 62.2682 34.8525 62.2609 33.458 62.2097C33.3288 62.2049 33.1998 62.2257 33.0786 62.2707C32.9573 62.3158 32.8461 62.3843 32.7513 62.4723C32.6566 62.5604 32.5801 62.6662 32.5262 62.7838C32.4723 62.9014 32.4421 63.0285 32.4374 63.1578C32.4326 63.2871 32.4534 63.416 32.4984 63.5372C32.5435 63.6585 32.612 63.7697 32.7 63.8645C32.7881 63.9592 32.8939 64.0358 33.0115 64.0896C33.1291 64.1435 33.2562 64.1737 33.3855 64.1784C34.2506 64.2099 35.1292 64.2263 36 64.2263C36.5726 64.2263 37.139 64.2195 37.6993 64.206C37.9603 64.2 38.2082 64.0905 38.3885 63.9017C38.5687 63.7128 38.6666 63.4601 38.6606 63.1991C38.6592 63.0693 38.6319 62.941 38.5803 62.8219C38.5286 62.7028 38.4536 62.5953 38.3597 62.5056C38.2658 62.4159 38.155 62.3459 38.0336 62.2997C37.9123 62.2535 37.7829 62.2321 37.6532 62.2367V62.2367Z" fill="#FAFF00"/>
<path d="M44.312 20.8237C44.3118 19.1797 43.8241 17.5726 42.9105 16.2057C41.9969 14.8389 40.6986 13.7736 39.1796 13.1446C37.6606 12.5157 35.9892 12.3512 34.3768 12.6721C32.7644 12.9931 31.2833 13.7849 30.1209 14.9475C28.9585 16.1102 28.1669 17.5914 27.8463 19.2039C27.5258 20.8164 27.6905 22.4878 28.3198 24.0066C28.9491 25.5255 30.0146 26.8236 31.3817 27.7369C32.7487 28.6502 34.3559 29.1376 36 29.1375C38.2039 29.1348 40.3168 28.258 41.8751 26.6994C43.4334 25.1408 44.3098 23.0277 44.312 20.8237V20.8237ZM29.6561 20.8237C29.6563 19.5691 30.0286 18.3427 30.7258 17.2996C31.423 16.2565 32.4138 15.4435 33.573 14.9636C34.7322 14.4836 36.0078 14.3581 37.2383 14.603C38.4688 14.8479 39.599 15.4522 40.4861 16.3395C41.3732 17.2267 41.9773 18.3571 42.222 19.5876C42.4667 20.8182 42.341 22.0937 41.8608 23.2528C41.3806 24.4119 40.5675 25.4027 39.5243 26.0997C38.4811 26.7967 37.2546 27.1687 36 27.1687C34.3178 27.1669 32.7051 26.4979 31.5157 25.3083C30.3264 24.1187 29.6576 22.5059 29.6561 20.8237V20.8237Z" fill="#FAFF00"/>
</svg>
