<svg width="25" height="25" viewBox="0 0 25 25" fill="none" xmlns="http://www.w3.org/2000/svg">
<path d="M6.25 7.77509H0.78125C0.432812 7.77509 0.128125 8.00477 0.03125 8.33915C-0.065625 8.67509 0.0703125 9.0329 0.365625 9.21727C0.371875 9.22196 0.90625 9.5704 1.32031 10.2048C0.465625 11.2907 0 12.6251 0 14.0251C0 17.472 2.80312 20.2751 6.25 20.2751C9.69688 20.2751 12.5 17.472 12.5 14.0251C12.5 10.5782 9.69688 7.77509 6.25 7.77509ZM6.25 18.7126C3.66562 18.7126 1.5625 16.6095 1.5625 14.0251C1.5625 12.8345 2.01406 11.7048 2.83125 10.8454C3.05156 10.6141 3.10938 10.2751 2.97813 9.98446C2.87188 9.75009 2.75 9.5329 2.62031 9.33759H6.25C8.83438 9.33759 10.9375 11.4407 10.9375 14.0251C10.9375 16.6095 8.83438 18.7126 6.25 18.7126Z" fill="white"/>
<path d="M14.7235 16.5189C14.375 16.2673 13.8875 16.3392 13.6313 16.6923L12.5407 18.1954L11.3516 16.6704C11.086 16.3298 10.5938 16.2673 10.2547 16.5345C9.91567 16.8001 9.85473 17.2907 10.1204 17.6314L11.9485 19.9751C12.0969 20.1642 12.3235 20.2751 12.5641 20.2751C12.5688 20.2751 12.5735 20.2751 12.5782 20.2751C12.8235 20.2704 13.0532 20.1517 13.1953 19.9532L14.8953 17.6095C15.1485 17.261 15.0735 16.772 14.7235 16.5189Z" fill="white"/>
<path d="M20.8391 7.9798C16.0859 3.64074 8.91406 3.63917 4.16093 7.9798C3.84218 8.27042 3.81875 8.76417 4.11093 9.08292C4.40156 9.40324 4.89531 9.42355 5.21406 9.13292C9.36875 5.34074 15.6328 5.34074 19.7859 9.13292C19.9359 9.27042 20.125 9.33761 20.3125 9.33761C20.525 9.33761 20.7359 9.25167 20.8891 9.08292C21.1812 8.76417 21.1578 8.27042 20.8391 7.9798Z" fill="white"/>
<path d="M6.25 10.9001C4.52656 10.9001 3.125 12.3017 3.125 14.0251C3.125 15.7485 4.52656 17.1501 6.25 17.1501C7.97344 17.1501 9.375 15.7485 9.375 14.0251C9.375 12.3017 7.97344 10.9001 6.25 10.9001ZM6.25 15.5876C5.38906 15.5876 4.6875 14.8876 4.6875 14.0251C4.6875 13.1642 5.38906 12.4626 6.25 12.4626C7.11094 12.4626 7.8125 13.1642 7.8125 14.0251C7.8125 14.8876 7.11094 15.5876 6.25 15.5876Z" fill="white"/>
<path d="M6.28128 13.2438H6.26565C5.8344 13.2438 5.49222 13.5938 5.49222 14.0251C5.49222 14.4563 5.85003 14.8063 6.28128 14.8063C6.71252 14.8063 7.06252 14.4563 7.06252 14.0251C7.06252 13.5938 6.71252 13.2438 6.28128 13.2438Z" fill="white"/>
<path d="M23.6781 10.2048C24.0922 9.57196 24.6297 9.21884 24.6344 9.21727C24.9297 9.03134 25.0656 8.67352 24.9687 8.33915C24.8734 8.00477 24.5672 7.77509 24.2188 7.77509H18.75C15.3031 7.77509 12.5 10.5782 12.5 14.0251C12.5 17.472 15.3031 20.2751 18.75 20.2751C22.1969 20.2751 25 17.472 25 14.0251C25 12.6266 24.5344 11.2907 23.6781 10.2048ZM18.75 18.7126C16.1656 18.7126 14.0625 16.6095 14.0625 14.0251C14.0625 11.4407 16.1656 9.33759 18.75 9.33759H22.3797C22.25 9.5329 22.1281 9.75009 22.0219 9.98446C21.8922 10.2751 21.9484 10.6157 22.1687 10.8454C22.9875 11.7063 23.4375 12.8345 23.4375 14.0251C23.4375 16.6095 21.3344 18.7126 18.75 18.7126Z" fill="white"/>
<path d="M18.75 10.9001C17.0266 10.9001 15.625 12.3017 15.625 14.0251C15.625 15.7485 17.0266 17.1501 18.75 17.1501C20.4734 17.1501 21.875 15.7485 21.875 14.0251C21.875 12.3017 20.4734 10.9001 18.75 10.9001ZM18.75 15.5876C17.8875 15.5876 17.1875 14.8876 17.1875 14.0251C17.1875 13.1642 17.8875 12.4626 18.75 12.4626C19.6125 12.4626 20.3125 13.1642 20.3125 14.0251C20.3125 14.8876 19.6125 15.5876 18.75 15.5876Z" fill="white"/>
<path d="M18.7813 13.2438H18.7656C18.3344 13.2438 17.9922 13.5938 17.9922 14.0251C17.9922 14.4563 18.3516 14.8063 18.7813 14.8063C19.2125 14.8063 19.5625 14.4563 19.5625 14.0251C19.5625 13.5938 19.2125 13.2438 18.7813 13.2438Z" fill="white"/>
</svg>
