<svg width="25" height="21" viewBox="0 0 25 21" fill="none" xmlns="http://www.w3.org/2000/svg">
<path d="M25 3.02756C23.4274 3.10004 23.4617 3.09413 23.284 3.10901L24.2153 0.449208C24.2153 0.449208 21.3081 1.51866 20.5711 1.70997C18.6356 -0.0297268 15.7585 -0.106593 13.7016 1.1576C12.0172 2.1931 11.1132 3.97132 11.4147 6.04976C8.13656 5.59485 5.37453 4.04094 3.19385 1.42138L2.50416 0.593022L1.98879 1.53945C1.33743 2.73536 1.12114 4.10273 1.37959 5.38962C1.48563 5.91758 1.66588 6.42112 1.91555 6.89261L1.32389 6.66335L1.2537 7.65193C1.18256 8.65615 1.51691 9.8284 2.14825 10.7874C2.32601 11.0575 2.55489 11.3541 2.845 11.6467L2.53925 11.5998L2.91233 12.7325C3.40271 14.2208 4.42123 15.3723 5.74303 16.0124C4.42295 16.5726 3.35655 16.93 1.6037 17.5066L0 18.0338L1.48125 18.8437C2.04601 19.1525 4.04167 20.1838 6.01349 20.4932C10.3966 21.1806 15.3315 20.6208 18.6537 17.6287C21.4519 15.1085 22.3701 11.5237 22.1794 7.79307C22.1506 7.22831 22.3053 6.68929 22.615 6.27559C23.2355 5.44722 24.9962 3.03309 25 3.02756ZM21.4437 5.39821C20.9293 6.08504 20.6716 6.96223 20.7178 7.86784C20.9103 11.6308 19.8864 14.5491 17.6744 16.5411C15.0906 18.8683 10.9228 19.7817 6.24027 19.0472C5.39226 18.9143 4.51584 18.6165 3.79047 18.3192C5.26009 17.8135 6.39496 17.3628 8.22773 16.4954L10.7862 15.2844L7.96146 15.1036C6.60839 15.017 5.48172 14.3612 4.78916 13.2965C5.1569 13.2752 5.51147 13.2157 5.86452 13.1172L8.55865 12.3669L5.84202 11.7016C4.52194 11.3783 3.76949 10.5885 3.37067 9.98271C3.10879 9.58465 2.9377 9.17685 2.83508 8.80092C3.10745 8.87397 3.42503 8.92604 3.93715 8.97677L6.45161 9.22549L4.45938 7.67138C3.02391 6.55177 2.44865 4.86968 2.87037 3.25263C7.35035 7.89931 12.6104 7.55008 13.1399 7.67291C13.0234 6.5409 13.0203 6.53823 12.9898 6.43046C12.3117 4.0335 13.7978 2.81642 14.468 2.40443C15.868 1.54403 18.0902 1.41433 19.6295 2.83187C19.9619 3.13781 20.4115 3.25816 20.8322 3.15364C21.2099 3.0598 21.5198 2.96042 21.8233 2.85228L21.1916 4.65625L21.998 4.65682C21.8458 4.86091 21.6633 5.10524 21.4437 5.39821Z" fill="white"/>
</svg>
