<svg width="67" height="67" viewBox="0 0 67 67" fill="none" xmlns="http://www.w3.org/2000/svg">
<path d="M66.866 28.6811C66.6337 28.1865 66.1376 27.87 65.5888 27.87H61.4163C58.7635 13.4739 46.1221 2.53027 30.9704 2.53027C13.8944 2.53027 0 16.4246 0 33.5007C0 50.5768 13.8929 64.4697 30.9704 64.4697C41.991 64.4697 52.2689 58.5382 57.7927 48.9931C58.571 47.646 58.112 45.9254 56.7635 45.1456C55.4178 44.3659 53.6958 44.8249 52.9189 46.172C48.3972 53.9852 39.9867 58.8404 30.9704 58.8404C16.9991 58.8404 5.63073 47.4735 5.63073 33.5036C5.63073 19.5308 16.9991 8.16386 30.9704 8.16386C43.0045 8.16386 53.0871 16.6043 55.6559 27.8714H51.5162C50.9674 27.8714 50.4727 28.1879 50.239 28.6825C50.0066 29.1772 50.0822 29.7602 50.4328 30.1807L57.472 38.6268C57.7399 38.9476 58.1348 39.1329 58.5539 39.1329C58.9716 39.1329 59.3679 38.9461 59.6344 38.6268L66.6736 30.1807C67.0242 29.7588 67.0984 29.1758 66.866 28.6811Z" fill="#FAFF00"/>
<path d="M30.9705 9.5694C29.4153 9.5694 28.1551 10.8295 28.1551 12.3848V29.468C26.8821 30.3603 26.0439 31.8315 26.0439 33.5021C26.0439 36.2192 28.2549 38.4301 30.9719 38.4301C31.716 38.4301 32.4174 38.2519 33.0503 37.954L42.8435 43.6061C43.2882 43.8641 43.7701 43.9853 44.249 43.9853C45.2212 43.9853 46.1677 43.4807 46.6895 42.5769C47.4664 41.2326 47.0059 39.5092 45.6574 38.7323L35.8542 33.0716C35.7231 31.5834 34.9491 30.2834 33.7887 29.4708V12.3848C33.7858 10.831 32.5243 9.5694 30.9705 9.5694ZM30.9705 35.6119C29.8058 35.6119 28.8593 34.6639 28.8593 33.5021C28.8593 32.3389 29.8073 31.391 30.9705 31.391C32.1337 31.391 33.0816 32.3389 33.0816 33.5021C33.0816 34.6639 32.1337 35.6119 30.9705 35.6119Z" fill="#FAFF00"/>
</svg>
